<svg width="30" height="31" viewBox="0 0 30 31" fill="none" xmlns="http://www.w3.org/2000/svg">
<g clip-path="url(#clip0_3_102)">
<path d="M16.4406 26.9346C16.8209 27.3272 17.0074 27.8355 17 28.3437C16.9926 28.852 16.7939 29.3555 16.4013 29.7385L16.3719 29.7674C15.9842 30.1287 15.4886 30.3046 14.9954 30.2973C14.5022 30.2901 14.0091 30.0998 13.6337 29.7264C9.30066 25.4748 5.01425 21.1509 0.708215 16.8656C0.69104 16.8535 0.676319 16.8415 0.661597 16.827C0.278839 16.4344 0.0923667 15.9213 0.0997274 15.413C0.107088 14.9048 0.308282 14.3989 0.700855 14.0159L0.767101 13.9533C5.05841 9.72571 9.33746 5.48613 13.6361 1.26823C14.014 0.897264 14.5022 0.706964 14.9954 0.699738C15.4886 0.692511 15.9842 0.868358 16.3719 1.23209L16.4087 1.26823C16.7939 1.64883 16.9926 2.14987 17 2.65573C17.0074 3.16159 16.8209 3.67226 16.4406 4.06491L4.85477 15.4492L16.4406 26.9346ZM29.1428 26.4528C29.5206 26.843 29.7046 27.3513 29.6973 27.8572C29.6899 28.3654 29.4912 28.8689 29.0986 29.2519L29.0692 29.2808C28.6839 29.6421 28.1859 29.818 27.6927 29.8131C27.1995 29.8059 26.7064 29.6156 26.331 29.2423C22.0912 25.0773 17.7066 20.9823 13.408 16.868C13.3908 16.8559 13.3736 16.8415 13.3564 16.827C12.9761 16.4344 12.7896 15.9213 12.797 15.413C12.8044 14.9048 13.0056 14.3989 13.3981 14.0159C17.6919 9.93288 22.0028 5.86432 26.304 1.78613L26.3334 1.75482C26.7088 1.38385 27.1995 1.19596 27.6927 1.18874C28.1859 1.18151 28.6815 1.35735 29.0692 1.72109L29.106 1.75722C29.4912 2.13782 29.6899 2.63887 29.6973 3.14472C29.7046 3.65058 29.5182 4.16126 29.1379 4.5539L17.5619 15.4492L29.1428 26.4528Z" fill="black"/>
</g>
<defs>
<clipPath id="clip0_3_102">
<rect width="29.6" height="29.6" fill="white" transform="translate(0.100006 0.700012)"/>
</clipPath>
</defs>
</svg>
